<svg width="794" height="225" viewBox="0 0 794 225" fill="none" xmlns="http://www.w3.org/2000/svg">
<g clip-path="url(#clip0_16_39)">
<path d="M39.5833 175.407L82.0964 125.959L133.852 91.7251L194.725 66.1062L268.083 52.2253L338.328 53.1691L374.723 52.7972L404.86 58.8858L405.51 82.2826L349.342 113.714L385.919 173.696L368.725 173.856L221.733 174.881L39.5833 175.407Z" fill="#006039"/>
<path d="M337.162 179.551L376.614 179.163L376.989 179.194L377.113 179.712L377.19 180.23L377.284 180.935L377.363 181.908L377.426 182.592L377.473 183.627L377.471 185.387L377.461 186.463L377.436 188.332L377.399 189.942L377.274 190.644L377.157 191.814L376.988 192.925L376.828 193.509L376.305 193.535L336.883 193.103L336.767 192.692L336.662 192.018L336.546 191.139L336.398 189.791L336.296 188.356L336.282 187.361L336.308 185.429L336.314 184.346L336.342 183.673L336.408 182.707L336.503 182.035L336.636 181.45L336.781 180.632L336.926 180.194L337.162 179.551Z" fill="#A37E2C"/>
<path d="M45.4906 179.615L319.922 178.913L322.535 178.939L323.428 179.457L323.994 179.974L324.691 180.678L325.301 181.651L325.781 182.334L326.173 183.369L326.26 185.128V186.204L326.207 188.074L326.053 189.684L325.221 190.386L324.481 191.557L323.372 192.67L322.294 193.255L318.659 193.285L44.3817 193.168L43.5499 192.758L42.7797 192.085L41.9171 191.207L40.808 189.86L40.007 188.426L39.853 187.431L39.9146 185.499L39.8836 184.416L40.0376 183.743L40.4381 182.776L41.0542 182.103L41.9477 181.518L42.9027 180.698L43.8885 180.259L45.4906 179.615Z" fill="#A37E2C"/>
<path d="M91.6475 153.674L125.078 133.206L154.785 117.172L197.361 99.26L249.568 89.5883L301.199 81.1759L335.224 76.9877L369.39 71.8816L324.974 98.7287L307.308 114.417L299.01 146.463L296.59 153.103L218.451 152.526L91.6475 153.674Z" fill="black"/>
<path d="M107.392 149.326L145.026 128.643L174.664 113.493L212.398 101.022L253.097 92.7493L292.988 87.8106L315.898 84.5466L344.426 81.6018L313.947 100.652L298.109 113.987L291.64 141.397L289.754 147.077L228.84 146.583L107.392 149.326Z" fill="white"/>
<path d="M200.779 147.004L217.003 132.402L265.424 132.223L279.178 147.71L200.779 147.004Z" fill="#A37E2C"/>
<path d="M406.128 82.21L385.266 52.6514L743.054 49.5913L414.153 61.1599L406.128 82.21Z" fill="#A37E2C"/>
<path d="M435.634 122.71C448.429 122.71 458.801 117.363 458.801 110.767C458.801 104.171 448.429 98.8237 435.634 98.8237C422.839 98.8237 412.467 104.171 412.467 110.767C412.467 117.363 422.839 122.71 435.634 122.71Z" fill="white"/>
<path d="M434.155 110.064C436.605 110.064 438.591 109.016 438.591 107.723C438.591 106.429 436.605 105.381 434.155 105.381C431.705 105.381 429.719 106.429 429.719 107.723C429.719 109.016 431.705 110.064 434.155 110.064Z" fill="white"/>
<path d="M444.506 69.3175C453.762 69.3175 461.266 67.8496 461.266 66.039C461.266 64.2283 453.762 62.7605 444.506 62.7605C435.251 62.7605 427.747 64.2283 427.747 66.039C427.747 67.8496 435.251 69.3175 444.506 69.3175Z" fill="white"/>
<path d="M734.606 46.9443C734.606 47.1366 734.59 47.3288 734.558 47.5209L666.46 46.9443H734.606Z" fill="black"/>
<path d="M431.807 37.7322C431.807 38.0191 431.789 38.306 431.754 38.5927L356.021 37.7322H431.807Z" fill="black"/>
<path d="M622.516 204.537C622.516 204.949 622.492 205.361 622.445 205.772L521.089 204.537H622.516Z" fill="black"/>
<path d="M490.766 193.939C490.766 194.359 490.737 194.779 490.678 195.199L364.593 193.939H490.766Z" fill="black"/>
<path d="M557.687 20.071C557.687 20.5777 557.659 21.0844 557.605 21.5907L440.576 20.071H557.687Z" fill="black"/>
<path d="M225.175 25.0388C225.175 25.1789 225.163 25.3189 225.137 25.4589L171.151 25.0388H225.175Z" fill="black"/>
<path d="M794 202.55C793.999 202.698 793.99 202.846 793.972 202.995L756.007 202.55H794Z" fill="black"/>
<path d="M636.458 20.071C636.458 20.2564 636.448 20.4418 636.43 20.6271L597.769 20.071H636.458Z" fill="black"/>
<path d="M95.5167 49.877C95.5167 49.9387 95.51 50.0004 95.4968 50.0621L66.936 49.877H95.5167Z" fill="black"/>
<path d="M723.594 18.7463C723.594 18.9482 723.585 19.1501 723.566 19.3518L681.422 18.7463H723.594Z" fill="black"/>
<path d="M402.236 116.444C402.236 116.6 402.23 116.757 402.216 116.913L371.217 116.444H402.236Z" fill="black"/>
<path d="M436.393 78.3582C436.393 78.4117 436.388 78.4652 436.377 78.5188L414.783 78.3582H436.393Z" fill="black"/>
<path d="M658.765 202.881C658.764 203.017 658.758 203.153 658.745 203.289L631.229 202.881H658.765Z" fill="black"/>
<path d="M598.118 30.3374C598.118 30.4033 598.111 30.4692 598.098 30.535L569.537 30.3374H598.118Z" fill="black"/>
<path d="M75.3012 71.0723C75.3012 71.1258 75.2959 71.1794 75.2853 71.2329L52.2974 71.0723H75.3012Z" fill="black"/>
<path d="M430.817 164.795C430.816 164.837 430.807 164.878 430.789 164.919L392.127 164.795H430.817Z" fill="black"/>
<path d="M498.434 41.2664C498.434 41.4188 498.429 41.5712 498.418 41.7235L476.127 41.2664H498.434Z" fill="black"/>
<path d="M733.353 205.199C733.353 205.24 733.341 205.282 733.317 205.323L683.162 205.199H733.353Z" fill="black"/>
<path d="M447.625 132.292H440.79L460.559 78.4535H467.289L487.057 132.292H480.222L464.134 86.9709H463.713L447.625 132.292ZM450.149 111.261H477.699V117.045H450.149V111.261ZM486.21 84.237V78.4535H526.588V84.237H509.659V132.292H503.139V84.237H486.21ZM536.65 132.292V78.4535H569.143V84.237H543.17V102.428H567.46V108.212H543.17V126.509H569.563V132.292H536.65ZM580.894 132.292V78.4535H587.413V126.509H612.44V132.292H580.894ZM629.054 78.4535V132.292H622.534V78.4535H629.054ZM642.126 132.292V78.4535H674.618V84.237H648.645V102.428H672.936V108.212H648.645V126.509H675.039V132.292H642.126ZM686.369 132.292V78.4535H704.56C708.766 78.4535 712.219 79.1721 714.918 80.6092C717.617 82.0287 719.615 83.9828 720.912 86.4715C722.209 88.9601 722.857 91.7905 722.857 94.9626C722.857 98.1347 722.209 100.948 720.912 103.401C719.615 105.855 717.626 107.783 714.944 109.185C712.263 110.569 708.837 111.261 704.666 111.261H689.944V105.373H704.455C707.329 105.373 709.643 104.952 711.395 104.111C713.165 103.27 714.445 102.078 715.233 100.536C716.04 98.9759 716.443 97.1182 716.443 94.9626C716.443 92.8069 716.04 90.9229 715.233 89.3106C714.427 87.6982 713.139 86.4539 711.369 85.5777C709.599 84.6839 707.259 84.237 704.35 84.237H692.888V132.292H686.369ZM711.711 108.107L724.96 132.292H717.389L704.35 108.107H711.711Z" fill="black"/>
<path d="M476.606 172.092V148.601H490.783V151.125H479.451V159.062H490.049V161.585H479.451V169.568H490.967V172.092H476.606ZM508.757 154.474C508.619 153.312 508.061 152.409 507.082 151.767C506.103 151.125 504.903 150.803 503.48 150.803C502.44 150.803 501.53 150.972 500.751 151.308C499.978 151.645 499.374 152.107 498.938 152.696C498.51 153.285 498.296 153.954 498.296 154.703C498.296 155.33 498.445 155.869 498.743 156.32C499.049 156.764 499.439 157.135 499.913 157.433C500.387 157.724 500.884 157.965 501.404 158.156C501.924 158.339 502.402 158.488 502.838 158.603L505.224 159.245C505.836 159.406 506.516 159.628 507.265 159.911C508.022 160.193 508.745 160.58 509.433 161.069C510.129 161.551 510.703 162.17 511.154 162.927C511.605 163.684 511.83 164.613 511.83 165.714C511.83 166.984 511.498 168.131 510.833 169.155C510.175 170.18 509.211 170.994 507.942 171.598C506.68 172.202 505.147 172.504 503.343 172.504C501.66 172.504 500.204 172.233 498.973 171.69C497.749 171.147 496.786 170.39 496.082 169.419C495.386 168.448 494.993 167.32 494.901 166.035H497.837C497.914 166.922 498.212 167.657 498.732 168.238C499.259 168.811 499.925 169.239 500.728 169.522C501.538 169.798 502.41 169.935 503.343 169.935C504.429 169.935 505.403 169.759 506.268 169.408C507.132 169.048 507.816 168.551 508.321 167.917C508.825 167.274 509.078 166.525 509.078 165.668C509.078 164.888 508.86 164.254 508.424 163.764C507.988 163.275 507.415 162.877 506.703 162.572C505.992 162.266 505.224 161.998 504.398 161.769L501.508 160.943C499.672 160.415 498.22 159.662 497.149 158.683C496.078 157.705 495.543 156.424 495.543 154.841C495.543 153.526 495.899 152.379 496.61 151.4C497.329 150.414 498.292 149.649 499.5 149.106C500.716 148.555 502.073 148.28 503.572 148.28C505.086 148.28 506.432 148.552 507.61 149.094C508.787 149.63 509.72 150.364 510.408 151.297C511.104 152.23 511.471 153.289 511.509 154.474H508.757ZM515.223 151.125V148.601H532.84V151.125H525.454V172.092H522.609V151.125H515.223ZM545.902 172.092V170.027L553.655 161.539C554.565 160.545 555.315 159.681 555.903 158.947C556.492 158.205 556.928 157.51 557.211 156.86C557.501 156.202 557.647 155.514 557.647 154.795C557.647 153.969 557.448 153.254 557.05 152.65C556.66 152.046 556.125 151.58 555.445 151.251C554.764 150.922 553.999 150.758 553.151 150.758C552.248 150.758 551.461 150.945 550.788 151.32C550.123 151.687 549.606 152.203 549.239 152.868C548.88 153.533 548.7 154.313 548.7 155.208H545.993C545.993 153.832 546.311 152.623 546.945 151.583C547.58 150.544 548.444 149.733 549.538 149.152C550.639 148.571 551.874 148.28 553.242 148.28C554.619 148.28 555.838 148.571 556.901 149.152C557.964 149.733 558.798 150.517 559.402 151.503C560.006 152.49 560.308 153.587 560.308 154.795C560.308 155.659 560.151 156.504 559.838 157.33C559.532 158.148 558.996 159.062 558.232 160.071C557.475 161.073 556.423 162.296 555.078 163.741L549.801 169.385V169.568H560.721V172.092H545.902ZM573.12 172.413C571.391 172.413 569.92 171.942 568.704 171.002C567.488 170.054 566.559 168.681 565.917 166.884C565.274 165.08 564.953 162.9 564.953 160.346C564.953 157.808 565.274 155.64 565.917 153.843C566.567 152.038 567.499 150.662 568.715 149.714C569.939 148.758 571.407 148.28 573.12 148.28C574.832 148.28 576.297 148.758 577.513 149.714C578.736 150.662 579.669 152.038 580.311 153.843C580.961 155.64 581.286 157.808 581.286 160.346C581.286 162.9 580.965 165.08 580.323 166.884C579.68 168.681 578.751 170.054 577.536 171.002C576.32 171.942 574.848 172.413 573.12 172.413ZM573.12 169.889C574.832 169.889 576.163 169.064 577.111 167.412C578.059 165.76 578.533 163.405 578.533 160.346C578.533 158.312 578.315 156.58 577.88 155.151C577.451 153.721 576.832 152.631 576.021 151.882C575.219 151.132 574.251 150.758 573.12 150.758C571.422 150.758 570.095 151.595 569.14 153.27C568.184 154.936 567.706 157.295 567.706 160.346C567.706 162.38 567.92 164.109 568.348 165.531C568.776 166.953 569.392 168.035 570.195 168.777C571.005 169.518 571.98 169.889 573.12 169.889ZM585.645 172.092V170.027L593.398 161.539C594.308 160.545 595.058 159.681 595.646 158.947C596.235 158.205 596.671 157.51 596.954 156.86C597.245 156.202 597.39 155.514 597.39 154.795C597.39 153.969 597.191 153.254 596.793 152.65C596.403 152.046 595.868 151.58 595.188 151.251C594.507 150.922 593.742 150.758 592.894 150.758C591.991 150.758 591.204 150.945 590.531 151.32C589.866 151.687 589.349 152.203 588.982 152.868C588.623 153.533 588.443 154.313 588.443 155.208H585.736C585.736 153.832 586.054 152.623 586.688 151.583C587.323 150.544 588.187 149.733 589.281 149.152C590.382 148.571 591.617 148.28 592.985 148.28C594.362 148.28 595.581 148.571 596.644 149.152C597.707 149.733 598.541 150.517 599.145 151.503C599.749 152.49 600.051 153.587 600.051 154.795C600.051 155.659 599.894 156.504 599.581 157.33C599.275 158.148 598.739 159.062 597.975 160.071C597.218 161.073 596.166 162.296 594.821 163.741L589.544 169.385V169.568H600.464V172.092H585.645ZM612.542 172.413C611.196 172.413 609.984 172.145 608.906 171.61C607.827 171.075 606.963 170.34 606.313 169.408C605.663 168.475 605.308 167.412 605.247 166.219H607.999C608.107 167.282 608.588 168.161 609.445 168.857C610.309 169.545 611.341 169.889 612.542 169.889C613.505 169.889 614.361 169.664 615.111 169.213C615.868 168.761 616.46 168.142 616.889 167.355C617.324 166.559 617.542 165.661 617.542 164.659C617.542 163.634 617.317 162.721 616.866 161.918C616.422 161.107 615.81 160.469 615.03 160.002C614.251 159.536 613.36 159.299 612.358 159.291C611.639 159.284 610.901 159.394 610.144 159.624C609.387 159.846 608.764 160.132 608.275 160.484L605.614 160.163L607.036 148.601H619.24V151.125H609.422L608.596 158.052H608.734C609.215 157.67 609.819 157.353 610.546 157.1C611.272 156.848 612.029 156.722 612.817 156.722C614.254 156.722 615.535 157.066 616.659 157.754C617.791 158.435 618.678 159.368 619.32 160.553C619.97 161.738 620.295 163.092 620.295 164.613C620.295 166.112 619.959 167.45 619.286 168.628C618.621 169.798 617.703 170.723 616.533 171.403C615.363 172.076 614.033 172.413 612.542 172.413Z" fill="black"/>
</g>
<defs>
<clipPath id="clip0_16_39">
<rect width="794" height="225" fill="white"/>
</clipPath>
</defs>
</svg>
