<?xml version="1.0" encoding="UTF-8" standalone="no"?>
<!-- Created with Inkscape (http://www.inkscape.org/) -->

<svg
   width="210mm"
   height="297mm"
   viewBox="0 0 210 297"
   version="1.1"
   id="svg1"
   xml:space="preserve"
   inkscape:version="1.4 (86a8ad7, 2024-10-11)"
   sodipodi:docname="laundry.svg"
   xmlns:inkscape="http://www.inkscape.org/namespaces/inkscape"
   xmlns:sodipodi="http://sodipodi.sourceforge.net/DTD/sodipodi-0.dtd"
   xmlns="http://www.w3.org/2000/svg"
   xmlns:svg="http://www.w3.org/2000/svg"><sodipodi:namedview
     id="namedview1"
     pagecolor="#ffffff"
     bordercolor="#000000"
     borderopacity="0.25"
     inkscape:showpageshadow="2"
     inkscape:pageopacity="0.0"
     inkscape:pagecheckerboard="0"
     inkscape:deskcolor="#d1d1d1"
     inkscape:document-units="mm"
     inkscape:zoom="1.4142136"
     inkscape:cx="324.20846"
     inkscape:cy="613.41513"
     inkscape:window-width="1920"
     inkscape:window-height="991"
     inkscape:window-x="-9"
     inkscape:window-y="-9"
     inkscape:window-maximized="1"
     inkscape:current-layer="layer3" /><defs
     id="defs1"><inkscape:path-effect
       effect="fillet_chamfer"
       id="path-effect6"
       is_visible="true"
       lpeversion="1"
       nodesatellites_param="F,0,0,1,0,0,0,1 @ F,0,0,1,0,11.665197,0,1 @ F,0,0,1,0,9.3415775,0,1 @ F,0,0,1,0,10.907502,0,1 @ F,0,0,1,0,9.5606672,0,1 @ F,0,0,1,0,2.3812499,0,1 @ F,0,0,1,0,4.6027843,0,1 @ F,0,0,1,0,3.4519804,0,1 @ F,0,0,1,0,0.32086916,0,1 @ F,0,0,1,0,5.7705416,0,1 @ F,0,0,1,0,0.47777867,0,1 @ F,0,0,1,0,2.3812499,0,1 @ F,0,0,1,0,2.3812499,0,1"
       radius="10"
       unit="px"
       method="auto"
       mode="F"
       chamfer_steps="1"
       flexible="false"
       use_knot_distance="true"
       apply_no_radius="true"
       apply_with_radius="true"
       only_selected="false"
       hide_knots="false" /><inkscape:path-effect
       effect="fillet_chamfer"
       id="path-effect5"
       is_visible="true"
       lpeversion="1"
       nodesatellites_param="F,0,0,1,0,0,0,1 @ F,0,0,1,0,3.4395833,0,1 @ F,0,0,1,0,3.4395833,0,1 @ F,0,0,1,0,3.4395833,0,1 @ F,0,0,1,0,3.4395833,0,1 @ F,0,0,1,0,3.4395833,0,1 @ F,0,1,1,0,4.5775511,0,1 @ F,0,1,1,0,4.5775511,0,1 @ F,0,0,1,0,4.5775511,0,1 @ F,0,1,1,0,4.5775511,0,1 @ F,0,0,1,0,0,0,1 @ F,0,0,1,0,10.946319,0,1 @ F,0,0,1,0,3.4395833,0,1"
       radius="13"
       unit="px"
       method="auto"
       mode="F"
       chamfer_steps="1"
       flexible="false"
       use_knot_distance="true"
       apply_no_radius="true"
       apply_with_radius="true"
       only_selected="false"
       hide_knots="false" /><inkscape:path-effect
       effect="fillet_chamfer"
       id="path-effect4"
       is_visible="true"
       lpeversion="1"
       nodesatellites_param="F,0,0,1,0,0,0,1 @ F,0,0,1,0,6.8791665,0,1 @ F,0,0,1,0,6.8791665,0,1 @ F,0,0,1,0,6.8791665,0,1 @ F,0,0,1,0,6.8791665,0,1 @ F,0,0,1,0,6.8791665,0,1 @ F,0,0,1,0,6.8791665,0,1 @ F,0,0,1,0,6.8791665,0,1 @ F,0,0,1,0,6.8791665,0,1 @ F,0,0,1,0,6.8791665,0,1 @ F,0,0,1,0,0,0,1 @ F,0,0,1,0,6.8791665,0,1 @ F,0,0,1,0,6.8791665,0,1"
       radius="26"
       unit="px"
       method="auto"
       mode="F"
       chamfer_steps="1"
       flexible="false"
       use_knot_distance="true"
       apply_no_radius="true"
       apply_with_radius="true"
       only_selected="false"
       hide_knots="false" /></defs><g
     inkscape:label="Layer 1"
     inkscape:groupmode="layer"
     id="layer1"><text
       xml:space="preserve"
       style="font-size:3.175px;text-align:start;writing-mode:lr-tb;direction:ltr;text-anchor:start;white-space:pre;inline-size:0.573125;display:inline;fill:#000000;stroke-width:0.264583"
       x="7.5900393"
       y="3.6556108"
       id="text11" /></g><g
     inkscape:groupmode="layer"
     id="layer2"
     inkscape:label="Rill"
     style="display:inline"><g
       inkscape:groupmode="layer"
       id="layer3"
       inkscape:label="Nigga"><path
         style="display:inline;fill:#4bb543;fill-opacity:1;stroke-width:2.158;stroke-dasharray:none;paint-order:markers fill stroke"
         d="m 10.385445,173.67429 6.335646,-7.7555 a 49.227041,49.227041 137.2014 0 1 9.997979,-9.25777 l 1.719704,-1.19716 a 71.749585,71.749585 150.63324 0 1 11.935632,-6.71626 l 2.723717,-1.20643 a 55.092892,55.092892 163.22726 0 1 13.071505,-3.93973 l 5.448487,-0.92696 a 87.177841,87.177841 174.85649 0 1 13.660468,-1.22962 l 3.332428,-0.0367 a 50832.554,50832.554 179.37608 0 1 13.757517,-0.14982 158.25469,158.25469 1.5733619 0 1 8.313822,0.22836 l 1.42182,6.49055 -8.14902,5.51737 a 6.1408403,6.1408403 97.654076 0 0 -1.220332,9.08058 l 9.162552,10.69333 -1.88657,-8.6e-4 a 1765.6016,1765.6016 179.80291 0 0 -13.758142,0.0473 l -23.195759,0.17016 a 3194.2599,3194.2599 179.70307 0 1 -13.758116,0.0713 z"
         id="path19-8"
         sodipodi:nodetypes="cccccccccccccc"
         inkscape:path-effect="#path-effect4"
         inkscape:original-d="m 10.385445,173.67429 10.687778,-13.08296 13.011398,-9.05778 15.303287,-6.77833 19.011927,-3.23452 17.089924,-0.18842 9.149643,-0.0984 6.042948,0.25278 1.42182,6.49055 -13.845363,9.37413 13.638563,15.91715 -8.765731,-0.004 -36.953721,0.2711 z" /><path
         style="fill:#000000;fill-opacity:1;stroke-width:0.264583"
         d="M 21.190151,160.56806 Z"
         id="path2" /><path
         style="fill:#000000;fill-opacity:1;stroke-width:0.264583"
         d="M 10.389267,173.64752 Z"
         id="path3" /></g><path
       style="fill:#000000;stroke-width:0.264583"
       d="M 145.85268,40.025841 Z"
       id="path13" /><path
       style="fill:#a37e2c;fill-opacity:1;stroke-width:0.276702"
       d="m 12.090991,174.78777 75.45684,-0.18588 0.718444,0.007 0.245581,0.13691 0.155732,0.13692 0.191672,0.1862 0.167709,0.25739 0.13177,0.18073 0.107839,0.27382 0.02395,0.4655 v 0.28478 l -0.01466,0.49467 -0.04233,0.42597 -0.228716,0.18588 -0.203298,0.3098 -0.304936,0.29431 -0.296481,0.1549 -0.999538,0.008 -75.414487,-0.031 -0.228708,-0.10843 -0.211769,-0.17814 -0.237179,-0.23234 -0.304943,-0.35627 -0.220237,-0.3795 -0.04235,-0.26333 0.01693,-0.51117 -0.0085,-0.28656 0.04235,-0.17813 0.110119,-0.25559 0.169412,-0.17813 0.245652,-0.1549 0.262589,-0.21686 0.271062,-0.11617 z"
       id="path17"
       sodipodi:nodetypes="cccccccccccccccccccccccccccccccccc" /><path
       style="fill:#cccccc;stroke-width:0.264583"
       d="M 17.024034,140.31347 Z"
       id="path18" /><path
       style="fill:#a37e2c;fill-opacity:1;stroke-width:0.324785"
       d="m 50.997505,166.15948 4.078697,-3.86352 12.173205,-0.0473 3.457801,4.09744 z"
       id="path20"
       sodipodi:nodetypes="ccccc" /><path
       style="display:inline;mix-blend-mode:overlay;fill:#a37e2c;fill-opacity:1;stroke-width:0.325;stroke-dasharray:none"
       d="m 101.93024,148.40221 -6.615315,-7.26354 91.357335,-1.08847 -83.82069,3.60741 z"
       id="path20-5"
       sodipodi:nodetypes="ccccc" /><ellipse
       style="fill:#ffffff;stroke-width:0.264583"
       id="path23"
       cx="110.04008"
       cy="156.57167"
       rx="5.824194"
       ry="3.1599348" /><ellipse
       style="fill:#ffffff;stroke-width:0.264583"
       id="path24"
       cx="109.66833"
       cy="155.7662"
       rx="1.1152711"
       ry="0.61959505" /><ellipse
       style="fill:#ffffff;stroke-width:0.264583"
       id="path25"
       cx="112.27062"
       cy="144.7374"
       rx="4.2132463"
       ry="0.86743307" /><path
       style="fill:#000000;stroke-width:0.264583"
       id="path27"
       sodipodi:type="arc"
       sodipodi:cx="168.06964"
       sodipodi:cy="139.68527"
       sodipodi:rx="17.131804"
       sodipodi:ry="4.0893273"
       sodipodi:start="0"
       sodipodi:end="0.037316004"
       sodipodi:arc-type="slice"
       d="m 185.20144,139.68527 a 17.131804,4.0893273 0 0 1 -0.0119,0.15256 l -17.11988,-0.15256 z" /><path
       style="fill:#000000;stroke-width:0.264583"
       id="path28"
       sodipodi:type="arc"
       sodipodi:cx="90.02536"
       sodipodi:cy="137.24794"
       sodipodi:rx="19.052549"
       sodipodi:ry="6.1030111"
       sodipodi:start="0"
       sodipodi:end="0.037316004"
       sodipodi:arc-type="slice"
       d="m 109.07791,137.24794 a 19.052549,6.1030111 0 0 1 -0.0133,0.22769 l -19.03929,-0.22769 z" /><path
       style="fill:#000000;stroke-width:0.264583"
       id="path29"
       sodipodi:type="arc"
       sodipodi:cx="131.52357"
       sodipodi:cy="181.38164"
       sodipodi:rx="25.498577"
       sodipodi:ry="8.7623968"
       sodipodi:start="0"
       sodipodi:end="0.037316004"
       sodipodi:arc-type="slice"
       d="m 157.02215,181.38164 a 25.498577,8.7623968 0 0 1 -0.0178,0.3269 l -25.48083,-0.3269 z" /><path
       style="fill:#000000;stroke-width:0.264583"
       id="path30"
       sodipodi:type="arc"
       sodipodi:cx="92.18042"
       sodipodi:cy="178.57765"
       sodipodi:rx="31.719875"
       sodipodi:ry="8.9376459"
       sodipodi:start="0"
       sodipodi:end="0.037316004"
       sodipodi:arc-type="slice"
       d="m 123.9003,178.57765 a 31.719875,8.9376459 0 0 1 -0.0221,0.33344 l -31.69779,-0.33344 z" /><path
       style="fill:#000000;stroke-width:0.264583"
       id="path31"
       sodipodi:type="arc"
       sodipodi:cx="111.28245"
       sodipodi:cy="132.57507"
       sodipodi:rx="29.441656"
       sodipodi:ry="10.777749"
       sodipodi:start="0"
       sodipodi:end="0.037316004"
       sodipodi:arc-type="slice"
       d="m 140.7241,132.57507 a 29.441656,10.777749 0 0 1 -0.0205,0.40209 l -29.42116,-0.40209 z" /><path
       style="fill:#000000;stroke-width:0.264583"
       id="path32"
       sodipodi:type="arc"
       sodipodi:cx="43.549114"
       sodipodi:cy="133.88943"
       sodipodi:rx="13.581716"
       sodipodi:ry="2.9792151"
       sodipodi:start="0"
       sodipodi:end="0.037316004"
       sodipodi:arc-type="slice"
       d="m 57.13083,133.88943 a 13.581716,2.9792151 0 0 1 -0.0095,0.11115 l -13.572261,-0.11115 z" /><path
       style="fill:#000000;stroke-width:0.264583"
       id="path33"
       sodipodi:type="arc"
       sodipodi:cx="190.58215"
       sodipodi:cy="180.85588"
       sodipodi:rx="9.5510139"
       sodipodi:ry="3.1544631"
       sodipodi:start="0"
       sodipodi:end="0.037316004"
       sodipodi:arc-type="slice"
       d="m 200.13317,180.85588 a 9.5510139,3.1544631 0 0 1 -0.007,0.11769 l -9.54437,-0.11769 z" /><path
       style="fill:#000000;stroke-width:0.264583"
       id="path34"
       sodipodi:type="arc"
       sodipodi:cx="150.80086"
       sodipodi:cy="132.57507"
       sodipodi:rx="9.7262611"
       sodipodi:ry="3.9430788"
       sodipodi:start="0"
       sodipodi:end="0.037316004"
       sodipodi:arc-type="slice"
       d="m 160.52712,132.57507 a 9.7262611,3.9430788 0 0 1 -0.007,0.14711 l -9.71949,-0.14711 z" /><path
       style="fill:#000000;stroke-width:0.264583"
       id="path35"
       sodipodi:type="arc"
       sodipodi:cx="17.349546"
       sodipodi:cy="140.46123"
       sodipodi:rx="7.1851659"
       sodipodi:ry="1.3143597"
       sodipodi:start="0"
       sodipodi:end="0.037316004"
       sodipodi:arc-type="slice"
       d="m 24.534712,140.46123 a 7.1851659,1.3143597 0 0 1 -0.005,0.049 l -7.180164,-0.049 z" /><path
       style="fill:#000000;stroke-width:0.264583"
       id="path36"
       sodipodi:type="arc"
       sodipodi:cx="171.83061"
       sodipodi:cy="132.22458"
       sodipodi:rx="10.602501"
       sodipodi:ry="4.2935748"
       sodipodi:start="0"
       sodipodi:end="0.037316004"
       sodipodi:arc-type="slice"
       d="m 182.43311,132.22458 a 10.602501,4.2935748 0 0 1 -0.007,0.16018 l -10.59512,-0.16018 z" /><path
       style="fill:#000000;stroke-width:0.264583"
       id="path37"
       sodipodi:type="arc"
       sodipodi:cx="93.845276"
       sodipodi:cy="158.07365"
       sodipodi:rx="7.7985339"
       sodipodi:ry="3.329711"
       sodipodi:start="0"
       sodipodi:end="0.037316004"
       sodipodi:arc-type="slice"
       d="m 101.64381,158.07365 a 7.7985339,3.329711 0 0 1 -0.005,0.12423 l -7.793104,-0.12423 z" /><path
       style="fill:#000000;stroke-width:0.264583"
       id="path38"
       sodipodi:type="arc"
       sodipodi:cx="104.79827"
       sodipodi:cy="147.99687"
       sodipodi:rx="5.4326863"
       sodipodi:ry="1.1391116"
       sodipodi:start="0"
       sodipodi:end="0.037316004"
       sodipodi:arc-type="slice"
       d="m 110.23096,147.99687 a 5.4326863,1.1391116 0 0 1 -0.004,0.0425 l -5.42891,-0.0425 z" /><path
       style="fill:#000000;stroke-width:0.264583"
       id="path39"
       sodipodi:type="arc"
       sodipodi:cx="159.21277"
       sodipodi:cy="180.9435"
       sodipodi:rx="6.9222941"
       sodipodi:ry="2.8915911"
       sodipodi:start="0"
       sodipodi:end="0.037316004"
       sodipodi:arc-type="slice"
       d="m 166.13506,180.9435 a 6.9222941,2.8915911 0 0 1 -0.005,0.10787 l -6.91747,-0.10787 z" /><path
       style="fill:#000000;stroke-width:0.264583"
       id="path40"
       sodipodi:type="arc"
       sodipodi:cx="143.70331"
       sodipodi:cy="135.29141"
       sodipodi:rx="7.1851659"
       sodipodi:ry="1.4019836"
       sodipodi:start="0"
       sodipodi:end="0.037316004"
       sodipodi:arc-type="slice"
       d="m 150.88847,135.29141 a 7.1851659,1.4019836 0 0 1 -0.005,0.0523 l -7.18016,-0.0523 z" /><path
       style="fill:#000000;stroke-width:0.264583"
       id="path41"
       sodipodi:type="arc"
       sodipodi:cx="13.66934"
       sodipodi:cy="146.06917"
       sodipodi:rx="5.7831821"
       sodipodi:ry="1.1391116"
       sodipodi:start="0"
       sodipodi:end="0.037316004"
       sodipodi:arc-type="slice"
       d="m 19.452522,146.06917 a 5.7831821,1.1391116 0 0 1 -0.004,0.0425 l -5.779156,-0.0425 z" /><path
       style="fill:#000000;stroke-width:0.264583"
       id="path42"
       sodipodi:type="arc"
       sodipodi:cx="99.102715"
       sodipodi:cy="170.86674"
       sodipodi:rx="9.7262611"
       sodipodi:ry="0.87623978"
       sodipodi:start="0"
       sodipodi:end="0.037316004"
       sodipodi:arc-type="slice"
       d="m 108.82898,170.86674 a 9.7262611,0.87623978 0 0 1 -0.007,0.0327 l -9.719485,-0.0327 z" /><path
       style="fill:#000000;stroke-width:0.264583"
       id="path43"
       sodipodi:type="arc"
       sodipodi:cx="120.22009"
       sodipodi:cy="138.18301"
       sodipodi:rx="5.6079345"
       sodipodi:ry="3.2420869"
       sodipodi:start="0"
       sodipodi:end="0.037316004"
       sodipodi:arc-type="slice"
       d="m 125.82803,138.18301 a 5.6079345,3.2420869 0 0 1 -0.004,0.12096 l -5.60403,-0.12096 z" /><path
       style="fill:#000000;stroke-width:0.264583"
       id="path44"
       sodipodi:type="arc"
       sodipodi:cx="172.26872"
       sodipodi:cy="181.55687"
       sodipodi:rx="12.617852"
       sodipodi:ry="0.87623978"
       sodipodi:start="0"
       sodipodi:end="0.037316004"
       sodipodi:arc-type="slice"
       d="m 184.88657,181.55687 a 12.617852,0.87623978 0 0 1 -0.009,0.0327 l -12.60907,-0.0327 z" /><text
       xml:space="preserve"
       style="font-size:3.175px;text-align:start;writing-mode:lr-tb;direction:ltr;text-anchor:start;white-space:pre;inline-size:30.589;display:inline;fill:#000000;stroke-width:0.264583"
       x="110.75671"
       y="151.06372"
       id="text44"
       transform="matrix(6.1755686,0,0,6.1624207,-573.12519,-768.13564)"><tspan
         x="110.75671"
         y="151.06372"
         id="tspan2">ATELIER</tspan></text><text
       xml:space="preserve"
       style="font-size:8.54581px;text-align:start;writing-mode:lr-tb;direction:ltr;text-anchor:start;fill:#000000;stroke-width:0.71215"
       x="122.18562"
       y="169.69215"
       id="text45"
       transform="scale(0.97904703,1.0214014)"><tspan
         sodipodi:role="line"
         id="tspan45"
         style="stroke-width:0.71215"
         x="122.18562"
         y="169.69215">EST 2025</tspan></text><path
       style="display:inline;fill:#a37e2c;fill-opacity:1;stroke-width:0.23667"
       d="m 31.305608,153.52671 -2.555938,1.7078 6.431122,-7.35422 1.946595,2.22021 z"
       id="path20-7"
       sodipodi:nodetypes="ccccc" /><path
       style="display:inline;fill:#000000;fill-opacity:1;stroke-width:0.220268"
       d="m 29.379343,167.36449 4.695364,-5.004 a 25.103963,25.103963 140.97919 0 1 5.295074,-4.29105 l 2.69843,-1.63545 a 38.803299,38.803299 153.84646 0 1 6.150734,-3.02035 l 3.674551,-1.417 a 31.000253,31.000253 165.24327 0 1 6.611692,-1.74155 l 5.734058,-0.84933 a 49.96833,49.96833 175.5123 0 1 6.841886,-0.53699 l 4.392505,-0.0422 a 29174.14,29174.14 179.45681 0 1 6.878858,-0.0652 143.84024,143.84024 1.051951 0 1 6.580569,0.12083 l 1.292486,4.18347 -5.423753,2.8165 a 4.1071173,4.1071173 104.45699 0 0 -1.526381,5.92041 l 3.528458,5.302 a 6457.0633,6457.0633 179.60875 0 1 -13.796844,0.0942 l -9.986561,0.0638 a 1838.9017,1838.9017 179.74121 0 1 -6.879084,0.0311 z"
       id="path19-8-2"
       sodipodi:nodetypes="cccccccccccccc"
       inkscape:path-effect="#path-effect5"
       inkscape:original-d="m 29.379343,167.36449 7.048935,-7.51227 8.581436,-5.20101 10.093013,-3.89214 12.53898,-1.85729 11.271355,-0.10819 6.034487,-0.0565 3.985515,0.14513 1.292486,4.18347 -9.486212,4.9261 6.064536,9.11281 -2.850748,0.0243 -24.37217,0.15567 z" /><path
       style="display:inline;fill:#ffffff;fill-opacity:1;stroke-width:0.194415"
       d="m 32.235962,166.41656 a 35.11928,35.11928 143.25238 0 1 15.156785,-11.31713 187.69634,187.69634 158.69419 0 1 8.888426,-3.46649 49.890219,49.890219 171.30416 0 1 10.953326,-1.67528 70.758086,70.758086 179.25344 0 1 9.794598,-0.12763 10365.497,10365.497 179.45803 0 1 2.728899,-0.0258 853.93604,853.93604 179.76878 0 1 7.526193,-0.0304 2.9151398,2.9151398 70.10888 0 1 1.205181,3.33089 0.28587777,0.28587777 135.02306 0 1 -0.256399,0.25619 l -4.087694,2.04043 a 5.1141455,5.1141455 105.0223 0 0 -1.984069,7.39314 l 1.888776,2.86136 a 0.25975203,0.25975203 118.03986 0 1 -0.214553,0.40284 2060.8818,2060.8818 179.57464 0 1 -4.409363,0.0327 l -16.661708,0.10731 a 6313.4139,6313.4139 179.60941 0 0 -4.762389,0.0325 z"
       id="path19-8-2-1"
       sodipodi:nodetypes="cccccccccccccc"
       inkscape:path-effect="#path-effect6"
       inkscape:original-d="m 32.235962,166.41656 4.513193,-6.54316 10.825301,-4.85547 8.872161,-3.44931 11.022262,-1.64596 9.907973,-0.096 5.304554,-0.05 4.902354,-0.003 0.936301,3.44396 -9.53784,4.76094 5.330971,8.07603 -2.505923,0.0215 -21.42411,0.13797 z" /><path
       style="display:inline;fill:#a37e2c;fill-opacity:1;stroke-width:0.241895"
       d="m 54.538314,166.20765 2.614953,-2.74026 7.44306,-0.11942 2.850401,2.85514 z"
       id="path20-7-7"
       sodipodi:nodetypes="ccccc" /></g></svg>
